<svg width="244" height="182" viewBox="0 0 244 182" fill="none" xmlns="http://www.w3.org/2000/svg">
<path d="M243.166 159.396H0.834351V159.517H243.166V159.396Z" fill="#E0E0E0"/>
<path d="M183.872 164.528H167.2V164.649H183.872V164.528Z" fill="#E0E0E0"/>
<path d="M54.6513 164.586H45.2682V164.707H54.6513V164.586Z" fill="#E0E0E0"/>
<path d="M122.485 164.305H103.466V164.426H122.485V164.305Z" fill="#E0E0E0"/>
<path d="M102.982 162.58H94.4808V162.701H102.982V162.58Z" fill="#E0E0E0"/>
<path d="M206.603 162.643H180.92V162.764H206.603V162.643Z" fill="#E0E0E0"/>
<path d="M115.699 137.78H22.1159C21.3828 137.778 20.6801 137.486 20.1621 136.967C19.6442 136.448 19.3533 135.745 19.3533 135.012V3.46023C19.3597 2.73131 19.6534 2.03434 20.1707 1.52072C20.6879 1.00709 21.3869 0.71829 22.1159 0.717041H115.699C116.433 0.717041 117.137 1.00861 117.656 1.5276C118.175 2.04659 118.467 2.7505 118.467 3.48446V135.012C118.467 135.746 118.175 136.45 117.656 136.969C117.137 137.488 116.433 137.78 115.699 137.78ZM22.1159 0.813974C21.4149 0.815258 20.743 1.09462 20.2478 1.59076C19.7526 2.08689 19.4745 2.75924 19.4745 3.46023V135.012C19.4745 135.713 19.7526 136.386 20.2478 136.882C20.743 137.378 21.4149 137.657 22.1159 137.658H115.699C116.401 137.657 117.073 137.378 117.569 136.882C118.065 136.386 118.344 135.714 118.346 135.012V3.46023C118.344 2.75879 118.065 2.08645 117.569 1.59046C117.073 1.09447 116.401 0.815255 115.699 0.813974H22.1159Z" fill="#E0E0E0"/>
<path d="M220.537 137.78H126.948C126.215 137.778 125.512 137.486 124.993 136.968C124.474 136.449 124.182 135.746 124.181 135.012V3.46023C124.189 2.73087 124.483 2.03391 125.001 1.52041C125.519 1.00692 126.219 0.718276 126.948 0.717041H220.537C221.265 0.719563 221.963 1.00893 222.479 1.52242C222.995 2.03591 223.288 2.73215 223.295 3.46023V135.012C223.295 135.744 223.004 136.447 222.487 136.966C221.97 137.484 221.269 137.777 220.537 137.78ZM126.948 0.813974C126.247 0.815255 125.575 1.09447 125.079 1.59046C124.583 2.08645 124.303 2.75879 124.302 3.46023V135.012C124.303 135.714 124.583 136.386 125.079 136.882C125.575 137.378 126.247 137.657 126.948 137.658H220.537C221.238 137.657 221.911 137.378 222.407 136.882C222.903 136.386 223.182 135.714 223.183 135.012V3.46023C223.182 2.75879 222.903 2.08645 222.407 1.59046C221.911 1.09447 221.238 0.815255 220.537 0.813974H126.948Z" fill="#E0E0E0"/>
<path d="M213.751 98.7303C207.79 89.6526 213.233 79.8964 212.327 69.796C211.42 59.6956 201.824 57.4952 203.641 48.9555C205.745 39.0296 200.137 29.506 193.783 29.506C187.429 29.506 181.827 39.0054 183.93 48.941C185.748 57.4952 176.176 59.7005 175.245 69.7814C174.314 79.8624 179.781 89.6526 173.815 98.7158C167.849 107.779 169.419 119.813 172.778 125.779C173.672 127.362 174.748 128.835 175.987 130.166C178.263 132.609 181.018 134.558 184.08 135.89C187.142 137.223 190.446 137.911 193.786 137.911C197.125 137.911 200.429 137.223 203.491 135.89C206.554 134.558 209.309 132.609 211.585 130.166C212.82 128.833 213.895 127.361 214.789 125.779C218.152 119.828 219.718 107.827 213.751 98.7303Z" fill="#E0E0E0"/>
<path d="M193.783 105.617C194.179 105.617 194.571 105.695 194.937 105.847C195.303 105.998 195.635 106.22 195.915 106.5C196.195 106.78 196.417 107.113 196.568 107.478C196.72 107.844 196.798 108.236 196.798 108.632V159.396H190.769V108.632C190.769 108.236 190.847 107.844 190.998 107.478C191.15 107.113 191.372 106.78 191.652 106.5C191.932 106.22 192.264 105.998 192.63 105.847C192.995 105.695 193.387 105.617 193.783 105.617Z" fill="#F0F0F0"/>
<path d="M155.883 159.396H147.687V108.637C147.69 107.549 148.123 106.506 148.892 105.737C149.662 104.968 150.704 104.534 151.792 104.532C152.88 104.534 153.923 104.968 154.692 105.737C155.461 106.506 155.895 107.549 155.897 108.637L155.883 159.396Z" fill="#E0E0E0"/>
<path d="M151.778 145.704C165.742 145.704 177.063 134.383 177.063 120.419C177.063 106.455 165.742 95.1342 151.778 95.1342C137.813 95.1342 126.493 106.455 126.493 120.419C126.493 134.383 137.813 145.704 151.778 145.704Z" fill="#F0F0F0"/>
<path d="M181.489 112.832C182.816 107.491 179.562 102.085 174.221 100.759C168.88 99.432 163.474 102.686 162.148 108.027C160.821 113.368 164.075 118.774 169.416 120.1C174.757 121.427 180.163 118.173 181.489 112.832Z" fill="#F0F0F0"/>
<path d="M137.146 105.476C137.67 102.261 135.488 99.2304 132.273 98.7067C129.058 98.1831 126.027 100.365 125.503 103.58C124.979 106.795 127.161 109.826 130.376 110.35C133.592 110.874 136.623 108.692 137.146 105.476Z" fill="#F0F0F0"/>
<path d="M137.742 105.617C140.028 105.617 141.881 103.764 141.881 101.478C141.881 99.1925 140.028 97.3394 137.742 97.3394C135.456 97.3394 133.603 99.1925 133.603 101.478C133.603 103.764 135.456 105.617 137.742 105.617Z" fill="#F0F0F0"/>
<path d="M99.7055 129.099C95.7737 129.685 92.0163 131.119 88.694 133.301C88.6649 129.463 87.9622 125.823 86.1592 122.881C83.416 125.552 81.1914 129.012 79.3739 132.734C78.7099 125.76 76.8731 118.975 72.8068 114.676C66.7146 118.509 63.5739 124.897 62.0812 131.663C59.615 127.101 56.0356 123.237 51.6755 120.429C47.9484 124.354 46.7561 129.783 46.8579 135.347C42.622 130.413 37.9207 126.565 33.3358 126.114C32.2066 133.912 34.6105 141.269 37.6687 147.085C39.6542 150.817 42.6204 153.936 46.2476 156.106C49.8748 158.276 54.0255 159.415 58.2523 159.4H78.1671C86.6536 159.4 94.6117 154.874 98.5908 147.376C101.106 142.626 102.308 136.515 99.7055 129.099Z" fill="#E0E0E0"/>
<path d="M94.0156 28.4107C96.4728 21.2037 94.5003 16.0712 88.505 16.0712C84.7343 16.0712 80.0573 18.0922 75.5015 21.3782C74.9877 19.5026 73.5386 18.383 71.2074 18.383C67.1023 18.383 61.4463 21.8532 57.0116 26.7483C55.763 25.5621 54.1101 24.895 52.3879 24.8823C48.4573 24.6594 43.7028 26.6562 39.5686 29.8986C39.3614 29.6087 39.0879 29.3725 38.7709 29.2098C38.4539 29.047 38.1026 28.9625 37.7463 28.9632C35.4829 28.8372 32.415 30.8534 30.898 33.4609C30.8059 33.6208 30.7235 33.7807 30.6363 33.9455H95.2079C95.4017 31.6676 94.9995 29.7677 94.0156 28.4107Z" fill="#F0F0F0"/>
<path d="M94.2143 72.1708C95.4162 68.6522 94.4614 66.1465 91.5244 66.1465C89.6778 66.1465 87.3951 67.1158 85.1705 68.7394C85.0506 68.2871 84.7736 67.8924 84.389 67.6259C84.0044 67.3594 83.5374 67.2387 83.0719 67.2854C81.0702 67.2854 78.3076 68.9818 76.1363 71.376C75.5277 70.7946 74.7195 70.4686 73.8778 70.4648C71.9392 70.3534 69.637 71.3275 67.616 72.9124C67.518 72.7722 67.3884 72.6571 67.2377 72.5763C67.087 72.4954 66.9194 72.4512 66.7484 72.4471C65.6434 72.3841 64.1458 73.368 63.4043 74.6426L63.2734 74.8753H94.8152C94.9471 73.9308 94.7337 72.9705 94.2143 72.1708Z" fill="#F0F0F0"/>
<path d="M166.962 45.5435C166.713 45.5086 166.462 45.4908 166.211 45.4902C166.444 41.9764 165.101 39.7276 162.227 39.7276C160.157 39.7276 157.613 40.9005 155.025 42.8827C155.766 36.0587 153.392 31.624 148.012 31.624C143.679 31.624 138.188 34.532 132.764 39.2138C132.28 36.5385 130.69 34.9294 128.005 34.9294C123.289 34.9294 116.586 39.8924 111.211 46.8909C110.599 46.0839 109.813 45.4243 108.913 44.9605C108.012 44.4967 107.019 44.2405 106.006 44.2107C101.518 43.8957 95.9397 46.7455 90.9816 51.3886C90.8012 50.997 90.5141 50.6643 90.1532 50.4285C89.7922 50.1928 89.3722 50.0636 88.9412 50.0557C86.4839 49.8813 83.1252 52.4451 81.1332 55.8717H170.912C173.02 50.6761 171.343 46.13 166.962 45.5435Z" fill="#F0F0F0"/>
<path d="M122 181.283C173.899 181.283 215.971 178.827 215.971 175.797C215.971 172.767 173.899 170.31 122 170.31C70.1011 170.31 28.0287 172.767 28.0287 175.797C28.0287 178.827 70.1011 181.283 122 181.283Z" fill="#F5F5F5"/>
<path d="M24.515 47.0314L135.003 62.938L149.829 77.8995L24.515 47.0314Z" fill="#D9470D"/>
<path opacity="0.6" d="M24.515 47.0314L135.003 62.938L149.829 77.8995L24.515 47.0314Z" fill="white"/>
<path d="M24.515 47.0314L135.003 62.938L129.876 84.5733L24.515 47.0314Z" fill="#D9470D"/>
<path opacity="0.2" d="M24.515 47.0314L135.003 62.938L129.876 84.5733L24.515 47.0314Z" fill="black"/>
<path d="M127.608 21.984L134.02 52.0331C134.186 52.8178 134.035 53.6365 133.599 54.3098C133.163 54.9831 132.478 55.4559 131.693 55.6244L74.4643 67.838C73.6798 68.0034 72.8616 67.8516 72.1887 67.4157C71.5157 66.9798 71.0427 66.2952 70.8729 65.5116L64.456 35.4625C64.2907 34.6773 64.4431 33.8585 64.88 33.1854C65.317 32.5124 66.0027 32.0398 66.7872 31.8711L124.016 19.6576C124.801 19.4923 125.62 19.6448 126.293 20.0817C126.966 20.5186 127.439 21.2043 127.608 21.9889V21.984Z" fill="#D9470D"/>
<path opacity="0.4" d="M127.608 21.984L134.02 52.0331C134.186 52.8178 134.035 53.6365 133.599 54.3098C133.163 54.9831 132.478 55.4559 131.693 55.6244L74.4643 67.838C73.6798 68.0034 72.8616 67.8516 72.1887 67.4157C71.5157 66.9798 71.0427 66.2952 70.8729 65.5116L64.456 35.4625C64.2907 34.6773 64.4431 33.8585 64.88 33.1854C65.317 32.5124 66.0027 32.0398 66.7872 31.8711L124.016 19.6576C124.801 19.4923 125.62 19.6448 126.293 20.0817C126.966 20.5186 127.439 21.2043 127.608 21.9889V21.984Z" fill="black"/>
<path d="M126.197 20.0163L107.077 43.4885C105.304 45.6647 102.841 47.1703 100.096 47.7564C97.3504 48.3425 94.4872 47.9739 91.9799 46.7115L64.9406 33.0925C65.3781 32.4641 66.0383 32.0257 66.7872 31.8663L124.016 19.6528C124.763 19.4938 125.542 19.6237 126.197 20.0163Z" fill="#D9470D"/>
<path d="M24.515 47.0314L115.646 68.6909L129.876 84.5733L24.515 47.0314Z" fill="#D9470D"/>
<path opacity="0.6" d="M24.515 47.0314L115.646 68.6909L129.876 84.5733L24.515 47.0314Z" fill="white"/>
<path d="M57.7575 67.9083L57.5125 68.3265L67.6538 74.2668L67.8988 73.8487L57.7575 67.9083Z" fill="#D9470D"/>
<path d="M72.3762 76.4676L72.1312 76.8858L75.7779 79.0219L76.0229 78.6037L72.3762 76.4676Z" fill="#D9470D"/>
<path d="M24.515 47.0314L115.646 68.6909L97.9316 90.0403L24.515 47.0314Z" fill="#D9470D"/>
<path d="M146.408 97.7756C146.285 97.7759 146.163 97.7528 146.049 97.7077L131.209 91.8336C130.971 91.7379 130.781 91.5523 130.68 91.3171C130.579 91.0819 130.575 90.8163 130.669 90.5782C130.763 90.3402 130.948 90.149 131.182 90.0464C131.417 89.9438 131.682 89.9382 131.921 90.0306L146.766 95.9048C146.976 95.9878 147.151 96.1415 147.259 96.3394C147.368 96.5373 147.404 96.767 147.362 96.9887C147.319 97.2105 147.201 97.4105 147.027 97.5541C146.852 97.6978 146.633 97.7761 146.408 97.7756Z" fill="#D9470D"/>
<path opacity="0.3" d="M146.408 97.7756C146.285 97.7759 146.163 97.7528 146.049 97.7077L131.209 91.8336C130.971 91.7379 130.781 91.5523 130.68 91.3171C130.579 91.0819 130.575 90.8163 130.669 90.5782C130.763 90.3402 130.948 90.149 131.182 90.0464C131.417 89.9438 131.682 89.9382 131.921 90.0306L146.766 95.9048C146.976 95.9878 147.151 96.1415 147.259 96.3394C147.368 96.5373 147.404 96.767 147.362 96.9887C147.319 97.2105 147.201 97.4105 147.027 97.5541C146.852 97.6978 146.633 97.7761 146.408 97.7756Z" fill="black"/>
<path d="M145.53 89.2649C145.409 89.2641 145.289 89.2394 145.177 89.1922L137.204 86.0176C137.085 85.9714 136.976 85.9021 136.883 85.8137C136.791 85.7252 136.717 85.6194 136.666 85.5023C136.615 85.3852 136.587 85.2591 136.585 85.1313C136.583 85.0035 136.606 84.8764 136.653 84.7576C136.7 84.6387 136.77 84.5303 136.859 84.4385C136.948 84.3468 137.054 84.2736 137.171 84.2232C137.289 84.1727 137.415 84.146 137.543 84.1445C137.671 84.1431 137.798 84.1669 137.916 84.2147L145.889 87.3747C146.128 87.4687 146.32 87.6537 146.422 87.889C146.525 88.1244 146.53 88.3909 146.437 88.63C146.368 88.8156 146.245 88.976 146.083 89.0894C145.921 89.2029 145.728 89.2641 145.53 89.2649Z" fill="#D9470D"/>
<path opacity="0.5" d="M145.53 89.2649C145.409 89.2641 145.289 89.2394 145.177 89.1922L137.204 86.0176C137.085 85.9714 136.976 85.9021 136.883 85.8137C136.791 85.7252 136.717 85.6194 136.666 85.5023C136.615 85.3852 136.587 85.2591 136.585 85.1313C136.583 85.0035 136.606 84.8764 136.653 84.7576C136.7 84.6387 136.77 84.5303 136.859 84.4385C136.948 84.3468 137.054 84.2736 137.171 84.2232C137.289 84.1727 137.415 84.146 137.543 84.1445C137.671 84.1431 137.798 84.1669 137.916 84.2147L145.889 87.3747C146.128 87.4687 146.32 87.6537 146.422 87.889C146.525 88.1244 146.53 88.3909 146.437 88.63C146.368 88.8156 146.245 88.976 146.083 89.0894C145.921 89.2029 145.728 89.2641 145.53 89.2649Z" fill="white"/>
<path d="M128.863 97.6495C128.742 97.6481 128.622 97.6251 128.509 97.5816L114.032 91.8335C113.913 91.7873 113.804 91.718 113.712 91.6296C113.619 91.5411 113.546 91.4353 113.494 91.3182C113.443 91.2011 113.416 91.075 113.413 90.9472C113.411 90.8194 113.434 90.6924 113.481 90.5735C113.528 90.4546 113.598 90.3462 113.687 90.2545C113.776 90.1627 113.882 90.0896 114 90.0391C114.117 89.9886 114.243 89.9619 114.371 89.9605C114.499 89.959 114.626 89.9828 114.745 90.0306L129.221 95.7593C129.431 95.8423 129.606 95.996 129.715 96.1939C129.823 96.3918 129.86 96.6215 129.817 96.8433C129.775 97.0651 129.656 97.265 129.482 97.4087C129.308 97.5524 129.089 97.6307 128.863 97.6301V97.6495Z" fill="#D9470D"/>
<path opacity="0.3" d="M128.863 97.6495C128.742 97.6481 128.622 97.6251 128.509 97.5816L114.032 91.8335C113.913 91.7873 113.804 91.718 113.712 91.6296C113.619 91.5411 113.546 91.4353 113.494 91.3182C113.443 91.2011 113.416 91.075 113.413 90.9472C113.411 90.8194 113.434 90.6924 113.481 90.5735C113.528 90.4546 113.598 90.3462 113.687 90.2545C113.776 90.1627 113.882 90.0896 114 90.0391C114.117 89.9886 114.243 89.9619 114.371 89.9605C114.499 89.959 114.626 89.9828 114.745 90.0306L129.221 95.7593C129.431 95.8423 129.606 95.996 129.715 96.1939C129.823 96.3918 129.86 96.6215 129.817 96.8433C129.775 97.0651 129.656 97.265 129.482 97.4087C129.308 97.5524 129.089 97.6307 128.863 97.6301V97.6495Z" fill="black"/>
<path d="M181.274 53.9427C182.559 56.4484 183.736 58.9589 184.856 61.5277C185.975 64.0964 187.017 66.699 187.929 69.4277L188.258 70.46C188.316 70.6442 188.399 70.9446 188.447 71.1579C188.496 71.3711 188.539 71.6135 188.564 71.817C188.674 72.599 188.731 73.3876 188.733 74.1774C188.74 75.6339 188.672 77.0898 188.53 78.5393C188.259 81.3453 187.819 84.1324 187.211 86.8852L184.551 86.5896C184.517 83.8609 184.492 81.1032 184.395 78.4133C184.352 77.0756 184.274 75.7331 184.139 74.473C184.077 73.8812 183.98 73.2937 183.848 72.7137C183.824 72.578 183.785 72.4762 183.756 72.3647C183.727 72.2532 183.698 72.2145 183.649 72.0691L183.281 71.1531C182.268 68.7007 181.129 66.2289 179.966 63.7668L176.447 56.3805L181.274 53.9427Z" fill="#E4897B"/>
<path d="M184.589 85.7365L183.349 88.058L187.313 89.1631C187.313 89.1631 188.069 87.2971 187.168 85.8238L184.589 85.7365Z" fill="#E4897B"/>
<path d="M181.832 91.4023L185.476 91.6931L187.313 89.1631L183.349 88.0581L181.832 91.4023Z" fill="#E4897B"/>
<path d="M164.587 37.1928C164.534 37.4787 164.335 37.6774 164.151 37.6386C163.967 37.5999 163.865 37.343 163.923 37.0619C163.981 36.7808 164.175 36.5772 164.36 36.616C164.544 36.6548 164.65 36.9116 164.587 37.1928Z" fill="#263238"/>
<path d="M164.364 37.6774C163.852 38.4703 163.234 39.1894 162.527 39.8147C162.693 39.9903 162.894 40.128 163.117 40.2184C163.34 40.3088 163.581 40.3496 163.822 40.3382L164.364 37.6774Z" fill="#DE5753"/>
<path d="M165.935 35.8406C165.889 35.8394 165.845 35.8202 165.813 35.7872C165.674 35.628 165.499 35.5037 165.303 35.4246C165.107 35.3454 164.895 35.3136 164.684 35.3317C164.644 35.3321 164.605 35.3182 164.574 35.2925C164.543 35.2669 164.522 35.2311 164.515 35.1915C164.509 35.152 164.516 35.1112 164.536 35.0765C164.556 35.0418 164.588 35.0155 164.626 35.0021C164.896 34.9679 165.169 35.001 165.423 35.0982C165.677 35.1954 165.902 35.3539 166.08 35.5594C166.111 35.5912 166.129 35.6338 166.129 35.6782C166.129 35.7226 166.111 35.7652 166.08 35.7969C166.061 35.8147 166.038 35.8278 166.012 35.8354C165.987 35.8429 165.961 35.8447 165.935 35.8406Z" fill="#263238"/>
<path d="M172.604 41.1525C172.095 43.76 171.586 48.529 173.408 50.269C173.408 50.269 172.696 52.9104 167.854 52.9104C162.523 52.9104 165.314 50.269 165.314 50.269C168.222 49.5759 168.14 47.4192 167.636 45.3981L172.604 41.1525Z" fill="#E4897B"/>
<path d="M174.14 51.9119C174.523 50.6373 174.945 49.1784 174.072 48.718C173.103 48.2333 167.835 47.7002 166.017 48.6453C164.2 49.5904 164.718 52.1833 164.718 52.1833L174.14 51.9119Z" fill="#263238"/>
<path d="M185.316 172.772C185.166 172.792 185.013 172.782 184.866 172.742C184.72 172.702 184.583 172.633 184.463 172.54C184.421 172.481 184.398 172.411 184.398 172.339C184.398 172.266 184.421 172.196 184.463 172.137C184.491 172.087 184.529 172.043 184.575 172.009C184.621 171.975 184.674 171.951 184.73 171.939C185.253 171.822 186.232 172.491 186.276 172.52C186.289 172.531 186.298 172.544 186.304 172.56C186.31 172.575 186.312 172.591 186.31 172.608C186.307 172.623 186.3 172.638 186.288 172.649C186.277 172.66 186.263 172.668 186.247 172.671C185.941 172.737 185.629 172.771 185.316 172.772ZM184.87 172.094H184.769C184.736 172.101 184.705 172.115 184.678 172.135C184.651 172.155 184.629 172.18 184.614 172.21C184.536 172.346 184.585 172.404 184.614 172.423C184.764 172.627 185.491 172.627 186.024 172.54C185.677 172.31 185.283 172.161 184.87 172.103V172.094Z" fill="#D9470D"/>
<path d="M186.227 172.685H186.189C185.82 172.482 185.108 171.716 185.181 171.309C185.193 171.246 185.227 171.189 185.276 171.148C185.326 171.108 185.388 171.086 185.452 171.086C185.516 171.079 185.58 171.085 185.642 171.103C185.704 171.121 185.761 171.152 185.811 171.192C186.223 171.532 186.295 172.559 186.295 172.603C186.297 172.618 186.295 172.634 186.288 172.647C186.281 172.661 186.27 172.673 186.257 172.68C186.247 172.684 186.237 172.686 186.227 172.685ZM185.51 171.231H185.491C185.379 171.231 185.37 171.299 185.365 171.318C185.321 171.556 185.777 172.142 186.14 172.418C186.116 172.014 185.971 171.625 185.723 171.304C185.691 171.278 185.653 171.26 185.613 171.249C185.574 171.238 185.532 171.235 185.491 171.241L185.51 171.231Z" fill="#D9470D"/>
<path d="M163.938 172.772C163.482 172.772 163.041 172.709 162.891 172.506C162.853 172.452 162.833 172.387 162.833 172.322C162.833 172.256 162.853 172.191 162.891 172.137C162.92 172.088 162.96 172.044 163.006 172.01C163.053 171.976 163.106 171.952 163.162 171.939C163.749 171.779 164.999 172.486 165.053 172.515C165.067 172.525 165.078 172.538 165.085 172.553C165.092 172.569 165.094 172.586 165.091 172.603C165.089 172.62 165.08 172.635 165.068 172.647C165.056 172.66 165.04 172.668 165.023 172.671C164.666 172.738 164.302 172.772 163.938 172.772ZM163.371 172.084C163.318 172.076 163.264 172.076 163.211 172.084C163.177 172.091 163.144 172.105 163.116 172.125C163.088 172.145 163.064 172.171 163.046 172.2C162.983 172.307 163.007 172.355 163.046 172.385C163.206 172.608 164.107 172.622 164.776 172.53C164.341 172.295 163.863 172.147 163.371 172.094V172.084Z" fill="#D9470D"/>
<path d="M165.014 172.685H164.98C164.548 172.496 163.7 171.716 163.763 171.323C163.763 171.226 163.846 171.11 164.078 171.086C164.165 171.072 164.253 171.079 164.337 171.104C164.421 171.129 164.498 171.172 164.563 171.231C165.019 171.599 165.111 172.559 165.116 172.603C165.117 172.617 165.115 172.632 165.109 172.646C165.103 172.66 165.094 172.672 165.082 172.68C165.071 172.686 165.06 172.689 165.048 172.69C165.037 172.691 165.025 172.689 165.014 172.685ZM164.146 171.231H164.093C163.943 171.231 163.933 171.309 163.928 171.328C163.889 171.57 164.471 172.176 164.897 172.438C164.856 172.031 164.686 171.647 164.413 171.342C164.344 171.283 164.257 171.247 164.166 171.241L164.146 171.231Z" fill="#D9470D"/>
<path d="M168.93 172.598H165.368L165.014 164.354H168.576L168.93 172.598Z" fill="#E4897B"/>
<path d="M190.308 172.598H186.746L184.958 164.354H188.515L190.308 172.598Z" fill="#E4897B"/>
<path d="M186.494 172.186H190.493C190.564 172.186 190.633 172.211 190.688 172.256C190.744 172.301 190.782 172.363 190.798 172.433L191.501 175.598C191.517 175.675 191.515 175.755 191.496 175.831C191.477 175.907 191.441 175.978 191.391 176.039C191.34 176.1 191.277 176.148 191.206 176.181C191.134 176.213 191.056 176.23 190.977 176.228C189.581 176.204 188.903 176.121 187.143 176.121C186.063 176.121 183.833 176.238 182.336 176.238C180.838 176.238 180.649 174.784 181.26 174.624C184.003 174.023 185.035 173.194 185.912 172.409C186.072 172.265 186.279 172.185 186.494 172.186Z" fill="#263238"/>
<path d="M165.392 172.186H169.269C169.341 172.186 169.41 172.211 169.465 172.256C169.521 172.301 169.559 172.363 169.574 172.433L170.277 175.598C170.294 175.674 170.293 175.753 170.275 175.829C170.257 175.905 170.222 175.976 170.173 176.037C170.123 176.098 170.061 176.146 169.99 176.179C169.919 176.212 169.842 176.229 169.763 176.228C168.363 176.204 166.337 176.121 164.573 176.121C162.513 176.121 160.729 176.238 158.311 176.238C156.857 176.238 156.445 174.784 157.056 174.624C159.842 174.013 162.116 173.95 164.524 172.467C164.781 172.292 165.082 172.195 165.392 172.186Z" fill="#263238"/>
<path d="M163.681 56.5211C160.704 56.2904 157.741 55.8972 154.807 55.3433C153.353 55.0622 151.87 54.7472 150.396 54.3498C148.886 53.9633 147.403 53.4775 145.957 52.8958C145.584 52.7407 145.206 52.5711 144.832 52.4111C144.412 52.2042 144.007 51.9677 143.621 51.7035C142.923 51.2431 142.322 50.7633 141.726 50.2883C140.538 49.319 139.438 48.3497 138.333 47.3561C136.167 45.3496 134.112 43.2752 132.129 41.0943L133.913 39.1023L140.945 44.1573C142.104 44.9909 143.277 45.81 144.43 46.5806C145.002 46.9635 145.589 47.3222 146.127 47.6275C146.351 47.7558 146.585 47.8691 146.824 47.9668C147.11 48.0782 147.401 48.1897 147.707 48.2963C150.326 49.1029 153.005 49.7025 155.718 50.0896C158.485 50.5258 161.345 50.8844 164.108 51.1752L163.681 56.5211Z" fill="#E4897B"/>
<path d="M179.781 51.0735C183.121 51.8393 186.494 61.5955 186.494 61.5955L179.626 66.5245C179.626 66.5245 177.688 61.9784 175.817 58.0042C173.859 53.8409 176.369 50.2932 179.781 51.0735Z" fill="#D9470D"/>
<path opacity="0.4" d="M179.781 51.0735C183.121 51.8393 186.494 61.5955 186.494 61.5955L179.626 66.5245C179.626 66.5245 177.688 61.9784 175.817 58.0042C173.859 53.8409 176.369 50.2932 179.781 51.0735Z" fill="black"/>
<path d="M177.857 56.4048L176.495 59.4533C177.906 62.497 179.195 65.5116 179.539 66.3161C179.491 62.7151 178.807 58.2465 177.857 56.4048Z" fill="#D9470D"/>
<path opacity="0.6" d="M177.857 56.4048L176.495 59.4533C177.906 62.497 179.195 65.5116 179.539 66.3161C179.491 62.7151 178.807 58.2465 177.857 56.4048Z" fill="black"/>
<path d="M159.838 51.2577C159.838 51.2577 156.048 55.5373 159.624 82.0338H178.667C178.802 79.1258 176.966 64.8476 179.781 51.0735C177.677 50.6682 175.548 50.3995 173.408 50.269C170.712 50.1138 168.01 50.1138 165.314 50.269C163.466 50.4552 161.635 50.7858 159.838 51.2577Z" fill="#D9470D"/>
<path opacity="0.4" d="M159.838 51.2577C159.838 51.2577 156.048 55.5373 159.624 82.0338H178.667C178.802 79.1258 176.966 64.8476 179.781 51.0735C177.677 50.6682 175.548 50.3995 173.408 50.269C170.712 50.1138 168.01 50.1138 165.314 50.269C163.466 50.4552 161.635 50.7858 159.838 51.2577Z" fill="black"/>
<path d="M158.427 56.4048C158.301 57.408 158.204 58.5955 158.141 59.9961C160.022 59.4317 161.809 58.5923 163.444 57.505L158.427 56.4048Z" fill="#D9470D"/>
<path opacity="0.6" d="M158.427 56.4048C158.301 57.408 158.204 58.5955 158.141 59.9961C160.022 59.4317 161.809 58.5923 163.444 57.505L158.427 56.4048Z" fill="black"/>
<path d="M166.589 56.9379C164.04 59.1964 154.308 58.9687 154.308 58.9687L153.988 49.5468C157.274 50.0149 160.589 50.2546 163.909 50.2641C169.332 50.1526 169.371 54.4468 166.589 56.9379Z" fill="#D9470D"/>
<path opacity="0.4" d="M166.589 56.9379C164.04 59.1964 154.308 58.9687 154.308 58.9687L153.988 49.5468C157.274 50.0149 160.589 50.2546 163.909 50.2641C169.332 50.1526 169.371 54.4468 166.589 56.9379Z" fill="black"/>
<path d="M134.005 39.1217L131.582 36.267L128.969 39.175C128.969 39.175 130.579 41.8794 133.133 41.4529L134.005 39.1217Z" fill="#E4897B"/>
<path d="M128.112 32.9374L127.171 36.6645L128.95 39.1557L131.562 36.2671L128.112 32.9374Z" fill="#E4897B"/>
<path d="M165.014 164.359L165.198 168.604H168.76L168.576 164.359H165.014Z" fill="#CE6F64"/>
<path d="M188.52 164.359H184.958L185.879 168.604H189.441L188.52 164.359Z" fill="#CE6F64"/>
<path d="M167.156 33.6741C163.962 32.2201 162.954 25.7596 172.143 27.3735C172.143 27.3735 170.757 28.905 173.568 29.8743C176.379 30.8437 174.029 36.8292 167.156 33.6741Z" fill="#263238"/>
<path d="M174.096 38.5207C173.18 41.9134 172.822 43.978 170.704 45.3981C167.534 47.5306 163.594 45.0831 163.468 41.4626C163.356 38.2105 164.873 33.1749 168.532 32.4867C169.34 32.3283 170.175 32.3795 170.957 32.6354C171.739 32.8913 172.443 33.3434 173.001 33.9485C173.559 34.5535 173.953 35.2915 174.144 36.0919C174.336 36.8923 174.32 37.7285 174.096 38.5207Z" fill="#E4897B"/>
<path d="M172.017 29.0698C174.193 30.2814 177.14 31.0084 176.864 32.7338C176.5 34.8421 178.643 33.5238 178.143 36.6596C177.819 38.7097 174.038 44.9231 171.358 44.6226C167.355 44.1379 167.864 38.0506 167.849 34.8421C167.839 32.9471 167.752 26.6804 172.017 29.0698Z" fill="#263238"/>
<path d="M167.369 31.7888C166.4 32.0165 165.116 37.6047 168.872 38.1185C173.19 38.7049 167.369 31.7888 167.369 31.7888Z" fill="#263238"/>
<path d="M167.466 33.7711C166.279 33.8777 163.589 32.4479 163.918 30.296C163.918 30.2815 165.62 32.8114 167.466 33.7711Z" fill="#263238"/>
<path d="M169.23 38.5643C168.866 39.3634 168.247 40.0195 167.471 40.4303C166.448 40.9634 165.872 40.188 166.104 39.1605C166.313 38.2396 167.098 36.8486 168.15 36.7372C169.201 36.6257 169.652 37.595 169.23 38.5643Z" fill="#E4897B"/>
<path d="M174.562 34.6435C175.286 34.3291 175.921 33.8401 176.41 33.2201C176.899 32.6001 177.226 31.8685 177.363 31.0909C177.363 31.0909 178.962 35.5352 174.562 34.6435Z" fill="#263238"/>
<path d="M178.604 34.5707C178.267 34.3442 177.878 34.2048 177.474 34.1651C177.07 34.1253 176.662 34.1864 176.287 34.3429C176.287 34.3429 177.78 32.4091 178.604 34.5707Z" fill="#263238"/>
<path d="M166.381 82.0337C166.381 82.0337 170.423 109.243 172.638 119.435C175.061 130.582 184.221 167.785 184.221 167.785H190.74C190.74 167.785 184.706 131.498 183.32 120.429C181.817 108.433 178.667 82.0143 178.667 82.0143L166.381 82.0337Z" fill="#D9470D"/>
<path opacity="0.5" d="M166.381 82.0337C166.381 82.0337 170.423 109.243 172.638 119.435C175.061 130.582 184.221 167.785 184.221 167.785H190.74C190.74 167.785 184.706 131.498 183.32 120.429C181.817 108.433 178.667 82.0143 178.667 82.0143L166.381 82.0337Z" fill="white"/>
<path d="M183.179 165.381C183.15 165.381 183.853 167.887 183.853 167.887H191.19L191.055 165.653L183.179 165.381Z" fill="#D9470D"/>
<path opacity="0.1" d="M183.179 165.381C183.15 165.381 183.853 167.887 183.853 167.887H191.19L191.055 165.653L183.179 165.381Z" fill="black"/>
<path d="M168.935 91.727C173.607 92.643 173.112 110.067 172.55 119.028C171.203 112.693 169.23 100.504 167.883 91.853C168.209 91.6924 168.58 91.6479 168.935 91.727Z" fill="#D9470D"/>
<path opacity="0.4" d="M168.935 91.727C173.607 92.643 173.112 110.067 172.55 119.028C171.203 112.693 169.23 100.504 167.883 91.853C168.209 91.6924 168.58 91.6479 168.935 91.727Z" fill="white"/>
<path d="M159.624 82.0337C159.624 82.0337 159.14 108.651 159.523 119.513C159.925 130.805 163.885 167.785 163.885 167.785H169.914C169.914 167.785 170.137 131.464 170.398 120.375C170.694 108.283 172.153 82.0337 172.153 82.0337H159.624Z" fill="#D9470D"/>
<path opacity="0.5" d="M159.624 82.0337C159.624 82.0337 159.14 108.651 159.523 119.513C159.925 130.805 163.885 167.785 163.885 167.785H169.914C169.914 167.785 170.137 131.464 170.398 120.375C170.694 108.283 172.153 82.0337 172.153 82.0337H159.624Z" fill="white"/>
<path d="M165.135 163.452C165.12 163.452 165.106 163.447 165.095 163.437C165.085 163.427 165.078 163.413 165.077 163.399C164.011 153.163 161.505 128.397 161.199 119.513C160.875 110.445 161.17 90.0985 161.267 84.079C161.267 84.0636 161.273 84.0488 161.284 84.0379C161.295 84.027 161.31 84.0209 161.326 84.0209C161.341 84.0208 161.357 84.0268 161.368 84.0376C161.38 84.0484 161.387 84.0632 161.389 84.079C161.292 90.0985 160.996 110.445 161.321 119.508C161.636 128.392 164.141 153.148 165.198 163.384C165.198 163.401 165.192 163.417 165.182 163.429C165.171 163.442 165.156 163.45 165.14 163.452H165.135Z" fill="#D9470D"/>
<path opacity="0.4" d="M165.135 163.452C165.12 163.452 165.106 163.447 165.095 163.437C165.085 163.427 165.078 163.413 165.077 163.399C164.011 153.163 161.505 128.397 161.199 119.513C160.875 110.445 161.17 90.0985 161.267 84.079C161.267 84.0636 161.273 84.0488 161.284 84.0379C161.295 84.027 161.31 84.0209 161.326 84.0209C161.341 84.0208 161.357 84.0268 161.368 84.0376C161.38 84.0484 161.387 84.0632 161.389 84.079C161.292 90.0985 160.996 110.445 161.321 119.508C161.636 128.392 164.141 153.148 165.198 163.384C165.198 163.401 165.192 163.417 165.182 163.429C165.171 163.442 165.156 163.45 165.14 163.452H165.135Z" fill="white"/>
<path d="M162.712 165.381C162.687 165.381 163.056 167.887 163.056 167.887H170.389L170.587 165.653L162.712 165.381Z" fill="#D9470D"/>
<path opacity="0.1" d="M162.712 165.381C162.687 165.381 163.056 167.887 163.056 167.887H170.389L170.587 165.653L162.712 165.381Z" fill="black"/>
</svg>
